<mxfile host="app.diagrams.net" agent="Mozilla/5.0 (Windows NT 10.0; Win64; x64) AppleWebKit/537.36 (KHTML, like Gecko) Chrome/129.0.0.0 Safari/537.36" version="24.7.16">
  <diagram name="P치gina-1" id="5XWVKSWbAcRNChkXRKkE">
    <mxGraphModel grid="1" page="1" gridSize="10" guides="1" tooltips="1" connect="1" arrows="1" fold="1" pageScale="1" pageWidth="827" pageHeight="1169" math="0" shadow="0">
      <root>
        <mxCell id="0" />
        <mxCell id="1" parent="0" />
        <mxCell id="OQBv6IHemaQKlbbo75Iv-1" value="Usuario&lt;div&gt;&lt;br&gt;&lt;/div&gt;" style="shape=umlActor;verticalLabelPosition=bottom;verticalAlign=top;html=1;outlineConnect=0;" vertex="1" parent="1">
          <mxGeometry x="-280" y="260" width="70" height="120" as="geometry" />
        </mxCell>
        <mxCell id="OQBv6IHemaQKlbbo75Iv-2" value="Administrador" style="shape=umlActor;verticalLabelPosition=bottom;verticalAlign=top;html=1;outlineConnect=0;" vertex="1" parent="1">
          <mxGeometry x="930" y="260" width="70" height="120" as="geometry" />
        </mxCell>
        <mxCell id="OQBv6IHemaQKlbbo75Iv-8" value="" style="rounded=0;whiteSpace=wrap;html=1;fillColor=#D5E8D4;strokeColor=#82b366;gradientColor=none;" vertex="1" parent="1">
          <mxGeometry x="-80" y="10" width="910" height="690" as="geometry" />
        </mxCell>
        <mxCell id="OQBv6IHemaQKlbbo75Iv-9" value="&lt;b&gt;WebSalud&lt;/b&gt;" style="text;html=1;align=center;verticalAlign=middle;resizable=0;points=[];autosize=1;strokeColor=none;fillColor=none;" vertex="1" parent="1">
          <mxGeometry x="335" y="20" width="80" height="30" as="geometry" />
        </mxCell>
        <mxCell id="OQBv6IHemaQKlbbo75Iv-15" value="Contactar soporte" style="ellipse;whiteSpace=wrap;html=1;fillColor=#dae8fc;strokeColor=#6c8ebf;" vertex="1" parent="1">
          <mxGeometry x="330" y="570" width="130" height="90" as="geometry" />
        </mxCell>
        <mxCell id="OQBv6IHemaQKlbbo75Iv-16" value="Enviar&amp;nbsp;&lt;span style=&quot;background-color: initial;&quot;&gt;Queja&lt;/span&gt;" style="ellipse;whiteSpace=wrap;html=1;fillColor=#dae8fc;strokeColor=#6c8ebf;" vertex="1" parent="1">
          <mxGeometry x="170" y="340" width="135" height="90" as="geometry" />
        </mxCell>
        <mxCell id="OQBv6IHemaQKlbbo75Iv-17" value="Registrar&amp;nbsp;&lt;div&gt;Usuario&lt;/div&gt;" style="ellipse;whiteSpace=wrap;html=1;fillColor=#dae8fc;strokeColor=#6c8ebf;" vertex="1" parent="1">
          <mxGeometry x="80" y="100" width="150" height="90" as="geometry" />
        </mxCell>
        <mxCell id="OQBv6IHemaQKlbbo75Iv-18" value="&#xa;Iniciar Sesi칩n&#xa;&#xa;" style="ellipse;whiteSpace=wrap;html=1;fillColor=#dae8fc;strokeColor=#6c8ebf;" vertex="1" parent="1">
          <mxGeometry x="305" y="275" width="140" height="90" as="geometry" />
        </mxCell>
        <mxCell id="OQBv6IHemaQKlbbo75Iv-20" value="Recuperar&amp;nbsp;&lt;div&gt;Contrase침a&lt;/div&gt;" style="ellipse;whiteSpace=wrap;html=1;fillColor=#dae8fc;strokeColor=#6c8ebf;" vertex="1" parent="1">
          <mxGeometry x="190" y="190" width="130" height="90" as="geometry" />
        </mxCell>
        <mxCell id="OQBv6IHemaQKlbbo75Iv-21" value="Cerrar Sesi칩n" style="ellipse;whiteSpace=wrap;html=1;fillColor=#dae8fc;strokeColor=#6c8ebf;" vertex="1" parent="1">
          <mxGeometry x="90" y="435" width="130" height="85" as="geometry" />
        </mxCell>
        <mxCell id="OQBv6IHemaQKlbbo75Iv-22" value="" style="endArrow=classic;html=1;rounded=0;entryX=0.027;entryY=0.689;entryDx=0;entryDy=0;entryPerimeter=0;" edge="1" parent="1" source="OQBv6IHemaQKlbbo75Iv-1" target="OQBv6IHemaQKlbbo75Iv-17">
          <mxGeometry width="50" height="50" relative="1" as="geometry">
            <mxPoint x="130" y="320" as="sourcePoint" />
            <mxPoint x="440" y="360" as="targetPoint" />
            <Array as="points" />
          </mxGeometry>
        </mxCell>
        <mxCell id="OQBv6IHemaQKlbbo75Iv-24" value="" style="edgeStyle=none;orthogonalLoop=1;jettySize=auto;html=1;rounded=0;" edge="1" parent="1" source="OQBv6IHemaQKlbbo75Iv-1" target="OQBv6IHemaQKlbbo75Iv-18">
          <mxGeometry width="100" relative="1" as="geometry">
            <mxPoint x="130" y="330" as="sourcePoint" />
            <mxPoint x="230" y="330" as="targetPoint" />
            <Array as="points" />
          </mxGeometry>
        </mxCell>
        <mxCell id="OQBv6IHemaQKlbbo75Iv-26" value="" style="edgeStyle=none;orthogonalLoop=1;jettySize=auto;html=1;rounded=0;" edge="1" parent="1" source="OQBv6IHemaQKlbbo75Iv-2" target="OQBv6IHemaQKlbbo75Iv-18">
          <mxGeometry width="100" relative="1" as="geometry">
            <mxPoint x="740" y="322.1103485544446" as="sourcePoint" />
            <mxPoint x="552.94" y="317.89" as="targetPoint" />
            <Array as="points" />
          </mxGeometry>
        </mxCell>
        <mxCell id="OQBv6IHemaQKlbbo75Iv-28" value="" style="edgeStyle=none;orthogonalLoop=1;jettySize=auto;html=1;rounded=0;entryX=0.077;entryY=0.667;entryDx=0;entryDy=0;entryPerimeter=0;" edge="1" parent="1" source="OQBv6IHemaQKlbbo75Iv-1" target="OQBv6IHemaQKlbbo75Iv-20">
          <mxGeometry width="100" relative="1" as="geometry">
            <mxPoint x="120" y="300" as="sourcePoint" />
            <mxPoint x="220" y="300" as="targetPoint" />
            <Array as="points" />
          </mxGeometry>
        </mxCell>
        <mxCell id="OQBv6IHemaQKlbbo75Iv-30" value="" style="edgeStyle=none;orthogonalLoop=1;jettySize=auto;html=1;rounded=0;" edge="1" parent="1" source="OQBv6IHemaQKlbbo75Iv-1" target="OQBv6IHemaQKlbbo75Iv-16">
          <mxGeometry width="100" relative="1" as="geometry">
            <mxPoint x="110" y="330" as="sourcePoint" />
            <mxPoint x="370" y="405" as="targetPoint" />
            <Array as="points" />
          </mxGeometry>
        </mxCell>
        <mxCell id="OQBv6IHemaQKlbbo75Iv-32" value="" style="edgeStyle=none;orthogonalLoop=1;jettySize=auto;html=1;rounded=0;" edge="1" parent="1" source="OQBv6IHemaQKlbbo75Iv-1" target="OQBv6IHemaQKlbbo75Iv-21">
          <mxGeometry width="100" relative="1" as="geometry">
            <mxPoint x="120" y="379" as="sourcePoint" />
            <mxPoint x="220" y="379" as="targetPoint" />
            <Array as="points" />
          </mxGeometry>
        </mxCell>
        <mxCell id="OQBv6IHemaQKlbbo75Iv-38" value="Agregar&amp;nbsp;&lt;div&gt;Usuario&lt;/div&gt;" style="ellipse;whiteSpace=wrap;html=1;fillColor=#dae8fc;strokeColor=#6c8ebf;" vertex="1" parent="1">
          <mxGeometry x="560" y="140" width="140" height="85" as="geometry" />
        </mxCell>
        <mxCell id="OQBv6IHemaQKlbbo75Iv-40" value="Modificar&amp;nbsp;&lt;div&gt;Usuario&lt;/div&gt;" style="ellipse;whiteSpace=wrap;html=1;fillColor=#dae8fc;strokeColor=#6c8ebf;" vertex="1" parent="1">
          <mxGeometry x="570" y="470" width="130" height="90" as="geometry" />
        </mxCell>
        <mxCell id="OQBv6IHemaQKlbbo75Iv-41" value="Eliminar&amp;nbsp;&lt;div&gt;Usuario&lt;/div&gt;" style="ellipse;whiteSpace=wrap;html=1;fillColor=#dae8fc;strokeColor=#6c8ebf;" vertex="1" parent="1">
          <mxGeometry x="420" y="370" width="130" height="90" as="geometry" />
        </mxCell>
        <mxCell id="OQBv6IHemaQKlbbo75Iv-42" value="" style="edgeStyle=none;orthogonalLoop=1;jettySize=auto;html=1;rounded=0;" edge="1" parent="1" source="OQBv6IHemaQKlbbo75Iv-2" target="OQBv6IHemaQKlbbo75Iv-40">
          <mxGeometry width="100" relative="1" as="geometry">
            <mxPoint x="920" y="350" as="sourcePoint" />
            <mxPoint x="1020" y="350" as="targetPoint" />
            <Array as="points" />
          </mxGeometry>
        </mxCell>
        <mxCell id="OQBv6IHemaQKlbbo75Iv-43" value="" style="edgeStyle=none;orthogonalLoop=1;jettySize=auto;html=1;rounded=0;" edge="1" parent="1" source="OQBv6IHemaQKlbbo75Iv-2" target="OQBv6IHemaQKlbbo75Iv-41">
          <mxGeometry width="100" relative="1" as="geometry">
            <mxPoint x="900" y="340" as="sourcePoint" />
            <mxPoint x="1000" y="340" as="targetPoint" />
            <Array as="points" />
          </mxGeometry>
        </mxCell>
        <mxCell id="OQBv6IHemaQKlbbo75Iv-44" value="" style="edgeStyle=none;orthogonalLoop=1;jettySize=auto;html=1;rounded=0;" edge="1" parent="1" source="OQBv6IHemaQKlbbo75Iv-2" target="OQBv6IHemaQKlbbo75Iv-38">
          <mxGeometry width="100" relative="1" as="geometry">
            <mxPoint x="910" y="290" as="sourcePoint" />
            <mxPoint x="1010" y="290" as="targetPoint" />
            <Array as="points" />
          </mxGeometry>
        </mxCell>
        <mxCell id="OQBv6IHemaQKlbbo75Iv-46" value="" style="curved=1;endArrow=classic;html=1;rounded=0;entryX=0;entryY=0.5;entryDx=0;entryDy=0;" edge="1" parent="1" source="OQBv6IHemaQKlbbo75Iv-1" target="OQBv6IHemaQKlbbo75Iv-15">
          <mxGeometry width="50" height="50" relative="1" as="geometry">
            <mxPoint x="-170" y="390" as="sourcePoint" />
            <mxPoint x="-30" y="470" as="targetPoint" />
            <Array as="points">
              <mxPoint x="-140" y="450" />
              <mxPoint x="100" y="570" />
            </Array>
          </mxGeometry>
        </mxCell>
        <mxCell id="OQBv6IHemaQKlbbo75Iv-48" value="" style="curved=1;endArrow=classic;html=1;rounded=0;" edge="1" parent="1" target="OQBv6IHemaQKlbbo75Iv-15">
          <mxGeometry width="50" height="50" relative="1" as="geometry">
            <mxPoint x="920" y="370" as="sourcePoint" />
            <mxPoint x="440" y="567" as="targetPoint" />
            <Array as="points">
              <mxPoint x="890" y="452" />
              <mxPoint x="680" y="570" />
            </Array>
          </mxGeometry>
        </mxCell>
        <mxCell id="OQBv6IHemaQKlbbo75Iv-49" value="Recordar&amp;nbsp;&lt;div&gt;Datos&lt;/div&gt;" style="ellipse;whiteSpace=wrap;html=1;fillColor=#dae8fc;strokeColor=#6c8ebf;" vertex="1" parent="1">
          <mxGeometry x="346" y="100" width="135" height="90" as="geometry" />
        </mxCell>
        <mxCell id="OQBv6IHemaQKlbbo75Iv-56" value="" style="endArrow=none;dashed=1;html=1;rounded=0;exitX=1;exitY=0.5;exitDx=0;exitDy=0;entryX=0;entryY=0.5;entryDx=0;entryDy=0;" edge="1" parent="1" source="OQBv6IHemaQKlbbo75Iv-17" target="OQBv6IHemaQKlbbo75Iv-49">
          <mxGeometry width="50" height="50" relative="1" as="geometry">
            <mxPoint x="285" y="180" as="sourcePoint" />
            <mxPoint x="335" y="130" as="targetPoint" />
          </mxGeometry>
        </mxCell>
      </root>
    </mxGraphModel>
  </diagram>
</mxfile>
